<svg version="1" xmlns="http://www.w3.org/2000/svg" width="550.667" height="550.667" viewBox="0 0 413.000000 413.000000"><path d="M200.7.6c-.1.1-4.5.4-9.7.8-5.2.3-10.4.8-11.5 1-1.1.2-5.4.9-9.5 1.6-23.4 3.8-52.7 14.9-72.7 27.7C77 44.5 54.4 65.3 41.3 83c-22.2 30.1-35.5 63.1-40.1 99.6-.9 7.7-.8 43.3.2 50.4 5.3 37.6 19.7 72 42.5 101.5 5.6 7.2 22.4 24.3 30.6 31.2 29.6 24.8 69 41.7 107.5 46.1 10.5 1.2 45.8.8 53.5-.6 3.9-.7 8.4-1.5 10-1.8 1.7-.3 3.8-.7 4.7-1 .9-.3 2.5-.7 3.7-.9 5.8-1.1 18.8-5.2 27.6-8.7 11.3-4.4 31.9-15 35.1-17.9 1.1-1 2.4-1.9 2.8-1.9 1.8 0 20.8-15.2 29.9-24 20.3-19.4 35.9-42.2 47-68.5 4.6-11.1 10-28 11.1-34.8.3-2 1-5.6 1.5-7.9 5.1-23.3 4.1-57.7-2.4-85.3-9-38.7-31.5-76.7-61.1-103.5-15-13.5-25.1-20.6-44.4-31.2-16.3-8.9-43.4-17.8-62.5-20.4-1.6-.3-3.9-.6-5-.9-4.1-.8-32-2.5-32.8-1.9z"/></svg>